<svg xmlns="http://www.w3.org/2000/svg" viewBox="0 0 36.434 36.433" width="36" height="36">
  <g id="logo-sm" transform="translate(-3494 699)">
    <path id="Path_48" data-name="Path 48" d="M18.217,36.433a18.352,18.352,0,0,1-3.671-.37,18.117,18.117,0,0,1-6.514-2.741,18.27,18.27,0,0,1-6.6-8.015A18.125,18.125,0,0,1,.37,21.888a18.395,18.395,0,0,1,0-7.343A18.117,18.117,0,0,1,3.111,8.032a18.27,18.27,0,0,1,8.015-6.6A18.126,18.126,0,0,1,14.545.37a18.395,18.395,0,0,1,7.343,0A18.117,18.117,0,0,1,28.4,3.111,18.27,18.27,0,0,1,35,11.126a18.125,18.125,0,0,1,1.061,3.419,18.394,18.394,0,0,1,0,7.343A18.117,18.117,0,0,1,33.322,28.4,18.27,18.27,0,0,1,25.308,35a18.125,18.125,0,0,1-3.419,1.061A18.352,18.352,0,0,1,18.217,36.433Zm.041-34.781A16.606,16.606,0,1,0,34.864,18.258,16.625,16.625,0,0,0,18.258,1.652Z" transform="translate(3494 -699)"/>
    <path id="Path_49" data-name="Path 49" d="M352,401.275c.248-.207,10.988-16.275,10.988-16.275l10.533,16.275H368.44l-5.453-7.807-5.783,7.807Z" transform="translate(3149.436 -1079.208)"/>
    <path id="Path_50" data-name="Path 50" d="M3.864,6.216a.123.123,0,0,1-.1-.052L3.439,5.7a2.6,2.6,0,0,1-.567,0l-.325.463a.123.123,0,0,1-.143.045l-.645-.235a.123.123,0,0,1-.081-.126l.049-.563a2.59,2.59,0,0,1-.434-.365l-.547.146a.123.123,0,0,1-.138-.057L.264,4.413a.123.123,0,0,1,.019-.149l.4-.4a2.577,2.577,0,0,1-.1-.559l-.512-.24A.123.123,0,0,1,0,2.933l.119-.676a.123.123,0,0,1,.11-.1L.8,2.106a2.576,2.576,0,0,1,.284-.491L.841,1.1A.123.123,0,0,1,.874.955L1.4.514A.123.123,0,0,1,1.55.507l.463.324A2.564,2.564,0,0,1,2.546.637L2.693.091A.123.123,0,0,1,2.812,0H3.5a.123.123,0,0,1,.119.091l.147.546A2.563,2.563,0,0,1,4.3.831L4.761.507a.123.123,0,0,1,.15.007l.526.441a.123.123,0,0,1,.033.146l-.238.513a2.578,2.578,0,0,1,.284.491l.563.05a.123.123,0,0,1,.11.1l.119.676a.123.123,0,0,1-.069.133l-.512.24a2.576,2.576,0,0,1-.1.559l.4.4a.123.123,0,0,1,.019.149L5.7,5.008a.123.123,0,0,1-.138.057l-.547-.146a2.59,2.59,0,0,1-.434.365l.049.563a.123.123,0,0,1-.081.126l-.645.235A.122.122,0,0,1,3.864,6.216ZM3.157,1.583A1.529,1.529,0,1,0,4.686,3.112,1.53,1.53,0,0,0,3.157,1.583Z" transform="translate(3509.143 -679.833)"/>
    <path id="Path_51" data-name="Path 51" d="M2.9,4.667a.093.093,0,0,1-.076-.039L2.582,4.28a1.952,1.952,0,0,1-.426,0l-.244.347a.092.092,0,0,1-.107.034l-.485-.176A.093.093,0,0,1,1.26,4.39L1.3,3.967a1.944,1.944,0,0,1-.326-.274L.56,3.8a.092.092,0,0,1-.1-.043L.2,3.313A.093.093,0,0,1,.213,3.2l.3-.3a1.935,1.935,0,0,1-.074-.419L.055,2.3A.093.093,0,0,1,0,2.2l.09-.508a.093.093,0,0,1,.083-.076L.6,1.581a1.934,1.934,0,0,1,.213-.369L.632.827A.093.093,0,0,1,.656.717L1.051.386a.092.092,0,0,1,.112,0l.348.243a1.925,1.925,0,0,1,.4-.146l.11-.41A.093.093,0,0,1,2.111,0h.516a.093.093,0,0,1,.089.068l.11.41a1.924,1.924,0,0,1,.4.146L3.575.381a.093.093,0,0,1,.112,0l.395.331a.093.093,0,0,1,.024.11l-.179.385a1.935,1.935,0,0,1,.213.369l.422.037a.093.093,0,0,1,.083.076l.09.508a.093.093,0,0,1-.052.1l-.385.18a1.934,1.934,0,0,1-.074.42l.3.3a.093.093,0,0,1,.015.112l-.258.447a.092.092,0,0,1-.1.043l-.41-.109a1.945,1.945,0,0,1-.326.274l.037.423a.093.093,0,0,1-.061.095l-.485.176A.092.092,0,0,1,2.9,4.667ZM2.37,1.189A1.148,1.148,0,1,0,3.518,2.336,1.149,1.149,0,0,0,2.37,1.189Z" transform="translate(3511.211 -672.831)"/>
    <path id="Path_52" data-name="Path 52" d="M2.183,3.51a.07.07,0,0,1-.057-.03l-.183-.261a1.469,1.469,0,0,1-.32,0l-.183.261a.07.07,0,0,1-.081.025L.994,3.373A.07.07,0,0,1,.948,3.3l.027-.318A1.462,1.462,0,0,1,.73,2.778L.422,2.86l-.018,0a.07.07,0,0,1-.06-.035L.15,2.492a.07.07,0,0,1,.011-.084l.225-.226a1.455,1.455,0,0,1-.055-.315L.041,1.732A.07.07,0,0,1,0,1.656L.07,1.274a.07.07,0,0,1,.062-.057L.45,1.189A1.455,1.455,0,0,1,.61.912L.476.622A.07.07,0,0,1,.494.54L.791.29a.07.07,0,0,1,.085,0l.262.183a1.448,1.448,0,0,1,.3-.11L1.521.052A.07.07,0,0,1,1.588,0h.388a.07.07,0,0,1,.067.051L2.126.36a1.447,1.447,0,0,1,.3.11L2.689.287a.07.07,0,0,1,.085,0l.3.249a.07.07,0,0,1,.018.083l-.135.29a1.456,1.456,0,0,1,.16.277l.318.028a.07.07,0,0,1,.062.057l.067.382a.07.07,0,0,1-.039.075l-.289.135a1.455,1.455,0,0,1-.055.316l.225.226a.07.07,0,0,1,.011.084l-.194.336a.07.07,0,0,1-.06.035l-.018,0-.309-.082a1.463,1.463,0,0,1-.245.206l.027.318a.07.07,0,0,1-.046.071l-.364.133A.069.069,0,0,1,2.183,3.51ZM1.783.894a.863.863,0,1,0,.863.863A.864.864,0,0,0,1.783.894Z" transform="translate(3516.515 -671.097)"/>
  </g>
</svg>
